<svg width="15" height="15" viewBox="0 0 15 15" fill="none" xmlns="http://www.w3.org/2000/svg">
<g id="CaretLeft">
<path id="Vector" d="M9.70652 11.8559C9.75007 11.8994 9.78462 11.9511 9.80819 12.008C9.83176 12.0649 9.84389 12.1259 9.84389 12.1875C9.84389 12.2491 9.83176 12.3101 9.80819 12.367C9.78462 12.4239 9.75007 12.4756 9.70652 12.5192C9.66297 12.5627 9.61127 12.5973 9.55436 12.6208C9.49746 12.6444 9.43647 12.6565 9.37488 12.6565C9.31329 12.6565 9.2523 12.6444 9.1954 12.6208C9.13849 12.5973 9.08679 12.5627 9.04324 12.5192L4.35574 7.83166C4.31216 7.78812 4.27758 7.73643 4.25399 7.67952C4.2304 7.62261 4.21826 7.56162 4.21826 7.50002C4.21826 7.43842 4.2304 7.37742 4.25399 7.32051C4.27758 7.26361 4.31216 7.21191 4.35574 7.16838L9.04324 2.48088C9.1312 2.39292 9.25049 2.34351 9.37488 2.34351C9.49927 2.34351 9.61856 2.39292 9.70652 2.48088C9.79448 2.56883 9.84389 2.68813 9.84389 2.81252C9.84389 2.93691 9.79448 3.0562 9.70652 3.14416L5.35008 7.50002L9.70652 11.8559Z" fill="black"/>
</g>
</svg>
